<svg xmlns="http://www.w3.org/2000/svg" xmlns:xlink="http://www.w3.org/1999/xlink" viewBox="0 0 512 512" width="512" height="512" preserveAspectRatio="xMidYMid meet" style="width: 100%; height: 100%; transform: translate3d(0px, 0px, 0px); content-visibility: visible;">
  <defs>
    <clipPath id="__lottie_element_2">
      <rect width="512" height="512" x="0" y="0"/>
    </clipPath>
  </defs>
  <g clip-path="url(#__lottie_element_2)">
    <g transform="matrix(1.333299994468689,0,0,1.333299994468689,0,0)" opacity="1" style="display: block;">
      <g opacity="1" transform="matrix(1,0,0,1,0,0)">
        <g opacity="1" transform="matrix(1,0,0,1,0,0)">
          <path fill="rgb(255,255,255)" fill-opacity="1" d=" M325,69.81999969482422 C326.82000732421875,69.81999969482422 328.489990234375,70.86000061035156 329.19000244140625,72.54000091552734 C330.239990234375,74.91999816894531 329.19000244140625,77.62999725341797 326.8900146484375,78.61000061035156 C326.8900146484375,78.61000061035156 193.38999938964844,137.82000732421875 193.38999938964844,137.82000732421875 C192.1999969482422,138.30999755859375 190.80999755859375,138.30999755859375 189.6199951171875,137.75 C189.6199951171875,137.75 56.970001220703125,78.61000061035156 56.970001220703125,78.61000061035156 C55.36000061035156,77.91000366210938 54.25,76.23999786376953 54.25,74.43000030517578 C54.25,71.91999816894531 56.34000015258789,69.81999969482422 58.86000061035156,69.81999969482422 C58.86000061035156,69.81999969482422 325,69.81999969482422 325,69.81999969482422z M341.69000244140625,99.7699966430664 C342.3900146484375,101.16000366210938 342.32000732421875,102.83999633789062 341.4800109863281,104.16999816894531 C341.4800109863281,104.16999816894531 212.25,311.8800048828125 212.25,311.8800048828125 C210.86000061035156,314.0400085449219 208.0500030517578,314.739990234375 205.88999938964844,313.3399963378906 C204.55999755859375,312.5 203.72999572753906,311.0400085449219 203.72999572753906,309.5 C203.72999572753906,309.5 203.24000549316406,164.35000610351562 203.24000549316406,164.35000610351562 C203.24000549316406,162.52999877929688 204.27999877929688,160.92999267578125 205.82000732421875,160.16000366210938 C205.82000732421875,160.16000366210938 335.54998779296875,97.61000061035156 335.54998779296875,97.61000061035156 C337.8500061035156,96.48999786376953 340.57000732421875,97.47000122070312 341.69000244140625,99.7699966430664 C341.69000244140625,99.7699966430664 341.69000244140625,99.7699966430664 341.69000244140625,99.7699966430664z M48.45000076293945,97.61000061035156 C48.45000076293945,97.61000061035156 178.17999267578125,160.16000366210938 178.17999267578125,160.16000366210938 C179.72000122070312,160.92999267578125 180.75999450683594,162.5399932861328 180.75999450683594,164.35000610351562 C180.75999450683594,164.35000610351562 180.27000427246094,309.5 180.27000427246094,309.5 C180.27000427246094,311.0400085449219 179.44000244140625,312.5 178.11000061035156,313.3399963378906 C175.9499969482422,314.7300109863281 173.13999938964844,314.0400085449219 171.75,311.8800048828125 C171.75,311.8800048828125 42.52000045776367,104.16999816894531 42.52000045776367,104.16999816894531 C41.68000030517578,102.83999633789062 41.61000061035156,101.16000366210938 42.310001373291016,99.7699966430664 C43.43000030517578,97.47000122070312 46.150001525878906,96.48999786376953 48.45000076293945,97.61000061035156 C48.45000076293945,97.61000061035156 48.45000076293945,97.61000061035156 48.45000076293945,97.61000061035156z"/>
        </g>
      </g>
    </g>
  </g>
</svg>