<svg id="Слой_1" data-name="Слой 1" xmlns="http://www.w3.org/2000/svg" viewBox="0 0 721.74 702.98"><defs><style>.cls-1{fill:#fff;stroke:#fff;stroke-miterlimit:10;stroke-width:9px;}</style></defs><path class="cls-1" d="M449,796.51c-82.59,0-165.2-1.26-247.75.46-52.85,1.1-88.26-39.92-87.58-87.57,1.45-103.3.54-206.64.24-310a46.36,46.36,0,0,0-4.81-19.9C82.74,326.89,90.27,271.67,130,228.46c28.55-31.08,57.16-62.1,85.18-93.65,19.19-21.6,42.38-31.86,71.42-31.74q162.75.66,325.52-.06c30.78-.15,54.77,11,74.86,34.09,26.95,31,55.09,61,82.95,91.17,39.69,43,47.38,98.71,21.14,151.09a48.71,48.71,0,0,0-5,20.93c-.32,103.33-.2,206.65-.23,310,0,52.8-33.13,86.17-85.72,86.22Q574.57,796.62,449,796.51Zm1.65-662.37c-55.92,0-111.84.09-167.76,0-16.51,0-30.28,5.53-41.44,17.8-30.88,34-61.94,67.76-92.76,101.77-17,18.72-24.89,41.37-24.28,66.18,1,42.45,27.73,78.14,66.26,91.06,40.36,13.52,81.93,1.14,109.74-32.71,21.77-26.49,49.76-25.89,72.46.31,8.33,9.62,18.36,18.66,29.35,24.94C444.9,427.79,497,417,527.9,378c10-12.59,21.92-19.26,38.05-18.78,15.52.46,25.73,9,35.07,20.41,35.54,43.4,98.81,48.93,140.71,12.71,41.09-35.51,45.39-99.13,9.07-139.4-30.24-33.54-61-66.63-91.3-100.11-11.71-12.92-25.92-18.79-43.29-18.72C561,134.3,505.86,134.16,450.68,134.14Zm-2.77,394.55c3.82-2.83,4.8-3.39,5.58-4.16,10.26-10.16,20.45-20.39,30.74-30.52,11.46-11.27,26.95-14.65,38.2-5.49,12.19,9.92,22.1,22.6,33.32,33.74,3,3,7,6.36,10.79,6.73,19.79,1.9,36.44,9.56,41,29.8,5.24,23.49,8.2,48-12.06,67.57a3.53,3.53,0,0,1-.87.68c-7,3.53-7.69,9.48-7.9,16.71-1.19,40.4,5,81.22-6.61,121.5a40.21,40.21,0,0,0,4.57.58c40.37.1,80.74.58,121.1.09,28.59-.35,48.84-22,48.85-50.92q0-138.88,0-277.76V422.68c-4.75,2.48-7.66,3.84-10.41,5.47-31.48,18.66-65,24-100.4,14.39a127.06,127.06,0,0,1-67.52-44.31c-9.18-11.47-15.25-11.47-25-.47-1.71,1.94-3.27,4-5,5.92-31.59,33.69-70.19,48.48-116.13,41.74C396.81,440.53,369.89,424,348.6,398c-9.34-11.41-15.15-11.21-24.82.09-1.2,1.41-2.38,2.83-3.59,4.23C278.11,450.61,209.46,461.18,155,427.76c-2.61-1.6-5.42-2.86-9-4.71-.29,4.18-.63,6.74-.63,9.3q-.06,142.21,0,284.42C145.44,745.2,167.07,765.9,196,766c30.37.1,60.73,0,91.1-.09h31.64c-2.3-12-5.14-22.69-6.22-33.58s-.54-22.19-.57-33.3c-.06-19.63.07-39.26-.11-58.88,0-3.13-.24-7.82-2.17-9.13-18.92-12.89-20.51-31.89-20.16-52.22.56-31.82,12.94-45.94,44.47-49.7,3-.35,6.6-1.48,8.5-3.56,8.93-9.73,16.88-20.38,26.07-29.84,16.27-16.74,32.49-16.42,49.06.51C427.9,506.73,437.72,517.73,447.91,528.69ZM344.4,637.23c0,35.06-.95,69.4.43,103.65.62,15.51,9.67,22.9,26,23.44,37,1.23,74,1.29,111,1.5,14.79.09,29.63-.05,44.37-1.22,19.73-1.56,27.05-8.49,28.86-28.36,1.43-15.8,1-31.78,1.14-47.69.16-16.91,0-33.83,0-51.32Zm105.65-76.78q-51.06,0-102.1,0c-27.62,0-27.62,0-27.2,27.66C321,603,324.12,606,339.28,606L552.36,606c26.4,0,27.44-1.07,26.88-27.45-.32-15.7-2.46-18-18.21-18C524,560.39,487,560.46,450.05,560.45Zm-69.68-34.18,1.75,2h22L393,515.73Zm136,2.18-9.64-12.92-12.28,12.92Z" transform="translate(-89.13 -98.51)"/></svg>