<svg xmlns="http://www.w3.org/2000/svg" width="14" height="16" viewBox="0 0 14 16" fill="none">
<path d="M6.27155 0.0117206C6.06337 0.0231874 5.58268 0.087402 5.33591 0.13671C4.20144 0.362607 3.20382 0.830456 2.31846 1.55287C2.13017 1.70653 1.72667 2.09984 1.56177 2.29134C0.92436 3.0321 0.472913 3.86345 0.195729 4.80832C0.0202962 5.4046 -0.00777302 5.62705 0.00158339 6.29901C0.00509205 6.54441 0.0109398 7.23127 0.0144485 7.82411C0.0179571 8.41695 0.0226353 9.17835 0.026144 9.51548C0.0296526 9.8526 0.0343308 10.5418 0.0378395 11.0463C0.060061 14.468 0.0659087 15.0001 0.0857911 15.1159C0.108013 15.2466 0.151286 15.3762 0.198068 15.4576C0.354788 15.7248 0.627293 15.8957 1.01909 15.9748C1.13371 15.9966 1.184 16 1.44715 16C1.76293 16 1.88924 15.9885 2.20736 15.9301C2.5208 15.8727 2.77225 15.789 3.00265 15.664C3.20498 15.5539 3.57222 15.3429 3.67397 15.2776C3.77222 15.2145 3.90087 15.1365 4.20729 14.9531C4.39208 14.843 4.73593 14.6721 4.9558 14.5804C5.30901 14.4336 5.74408 14.3293 6.13237 14.2972C6.35926 14.2777 7.18263 14.2891 7.35923 14.3132C7.71594 14.3614 8.06213 14.4531 8.37089 14.5804C8.58843 14.671 8.93345 14.8418 9.11941 14.9531C9.42583 15.1365 9.55448 15.2145 9.65272 15.2776C9.75447 15.3429 10.1217 15.5539 10.324 15.664C10.5544 15.789 10.8059 15.8727 11.1193 15.9301C11.4375 15.9885 11.5638 16 11.8795 16C12.1427 16 12.193 15.9966 12.3076 15.9748C12.6994 15.8957 12.9719 15.7248 13.1286 15.4576C13.1754 15.3762 13.2187 15.2466 13.2409 15.1159C13.2608 15.0001 13.2666 14.468 13.2889 11.0463C13.2924 10.5418 13.297 9.8526 13.3006 9.51548C13.3041 9.17835 13.3087 8.41695 13.3122 7.82411C13.3158 7.23127 13.3216 6.54441 13.3251 6.29901C13.3345 5.62705 13.3064 5.4046 13.131 4.80832C12.8538 3.86345 12.4023 3.0321 11.7649 2.29134C11.6 2.09984 11.1965 1.70653 11.0082 1.55287C10.3404 1.00819 9.64103 0.624052 8.83287 0.359167C8.39429 0.214684 8.0212 0.129829 7.52297 0.0621748C7.08088 0.00140035 6.70779 -0.0135066 6.27155 0.0117206ZM7.07269 1.84528C8.55685 1.97714 9.79307 2.61126 10.5708 3.6387C10.9907 4.19255 11.2515 4.80488 11.4059 5.59953C11.4562 5.85525 11.455 5.79447 11.4597 9.89388L11.4644 13.8098L11.4363 13.8706C11.3813 13.9899 11.2819 14.0392 11.0959 14.038C10.8246 14.0357 10.5217 13.9084 10.1626 13.6447C9.88546 13.4406 9.74745 13.2881 9.63869 13.0645C9.496 12.7721 9.49834 12.8007 9.50302 11.8089C9.50419 11.3513 9.5077 10.9259 9.51121 10.8628C9.51705 10.7264 9.5346 8.7816 9.5346 8.21972C9.5346 7.85622 9.53226 7.81264 9.5077 7.68651C9.40829 7.16935 9.18724 6.7359 8.85158 6.39304C8.58609 6.12357 8.30657 5.9401 7.95687 5.80594C7.57794 5.66031 7.22356 5.60527 6.66335 5.60527C6.10313 5.60527 5.74876 5.66031 5.36982 5.80594C5.02013 5.9401 4.74061 6.12357 4.47512 6.39304C4.13946 6.7359 3.91841 7.16935 3.819 7.68651C3.79444 7.81264 3.7921 7.85622 3.7921 8.21972C3.7921 8.7816 3.80964 10.7264 3.81549 10.8628C3.819 10.9259 3.82251 11.3513 3.82368 11.8089C3.82836 12.8007 3.83069 12.7721 3.68801 13.0645C3.57924 13.2881 3.44123 13.4406 3.16405 13.6447C2.805 13.9084 2.50208 14.0357 2.23075 14.038C2.04479 14.0392 1.94538 13.9899 1.89041 13.8706L1.86234 13.8098L1.86702 9.89388C1.8717 5.79447 1.87053 5.85525 1.92082 5.59953C2.02491 5.05944 2.15005 4.68448 2.36525 4.2625C2.75705 3.49421 3.34884 2.89335 4.13946 2.45761C4.74061 2.12736 5.52304 1.90261 6.2774 1.84413C6.36394 1.83725 6.45868 1.83037 6.48792 1.82808C6.56861 1.8212 6.92182 1.83152 7.07269 1.84528ZM6.90311 7.33677C7.20485 7.35741 7.33233 7.40557 7.48203 7.55464C7.61653 7.68995 7.67618 7.82755 7.69255 8.04771C7.70425 8.1899 7.72062 9.35609 7.73466 11.0578C7.74167 11.8501 7.7405 11.9476 7.72413 12.0118C7.66331 12.2423 7.46332 12.4521 7.22122 12.5404C7.12298 12.5771 6.98498 12.5886 6.6423 12.5886C6.3195 12.5886 6.20839 12.5783 6.10313 12.5393C5.86338 12.4521 5.66338 12.2412 5.60257 12.0118C5.58268 11.935 5.58385 11.5119 5.61075 9.18294C5.62362 8.13257 5.6318 7.94337 5.66689 7.84131C5.75344 7.59592 5.95694 7.40672 6.18383 7.35855C6.32184 7.32989 6.6423 7.31957 6.90311 7.33677Z" fill="white"></path>
</svg>