<svg id="Слой_1" data-name="Слой 1" xmlns="http://www.w3.org/2000/svg" viewBox="0 0 554.58 704.04"><defs><style>.cls-1{fill:#fff;stroke:#fff;stroke-miterlimit:10;stroke-width:15px;}</style></defs><path class="cls-1" d="M719.66,568.59q0,105.93,0,211.88c0,2.25.05,4.51-.08,6.75-.25,4.46-2.78,6.94-7.11,7.24-4.63.31-7.77-2-8.66-6.57a42.52,42.52,0,0,1-.3-8.23q0-200.23.07-400.46c.1-56.7-15.69-108.2-49.57-153.61C611.07,168,553.65,133.74,482.45,124.33c-62.7-8.28-120.77,5.8-173.53,41-1.46,1-2.94,1.92-4.46,2.79-4.31,2.48-8.35,2-11.28-2s-1.93-8.38,1.94-11.24a203.92,203.92,0,0,1,18.14-12C362,114.41,414.91,101.17,470.9,106.73c106.17,10.54,182.18,65.33,227,162.26,15.62,33.81,22.06,69.91,21.92,107.26-.24,64.11-.07,128.22-.07,192.34Z" transform="translate(-172.71 -97.98)"/><path class="cls-1" d="M351.89,576.35c.42-46.85-1.64-93.66-1.54-140.5,0-25.78-.69-51.7,2.77-77.25,5-36.85,44.16-78,86-82.12,43.28-4.25,85.36,19.58,101.56,59.27,5.79,14.17,6.33,29.41,6.72,44.29.89,34.54.52,69.12.73,103.68,0,5.47-1.74,9.6-7.75,9.81-6.48.22-8.55-4.14-8.54-9.86,0-27.3.11-54.6.07-81.9,0-14.28-1.51-28.48-2.66-42.7-2.56-31.86-29.53-55.72-57.78-63.79-58.05-16.58-103.9,39.08-104,79.81-.37,117.22.86,234.43.79,351.65,0,18,.21,36.06.32,54.09a46.13,46.13,0,0,1-.07,5.26c-.54,5.12-2.91,8.59-8.62,8.22s-7.6-3.72-7.61-9.08c-.06-28.8-.34-57.61-.39-86.41Q351.79,637.59,351.89,576.35Z" transform="translate(-172.71 -97.98)"/><path class="cls-1" d="M223.49,444.92c0-24.54-.24-49.09,0-73.63,1.22-105,76.64-196.39,179.4-217.6,112.52-23.23,221.57,37.63,260.9,145.61,1.62,4.46,3,9,4.39,13.55,1.63,5.32.35,9.72-5.25,11.43s-9-1.64-10.53-6.81a213,213,0,0,0-23.74-53.26c-46-73.22-129.68-110.58-215-95.84-89.31,15.44-159.88,88.15-172,177.43A235.12,235.12,0,0,0,239.59,378c.16,50.59.08,101.17.07,151.76,0,10.07-2.49,14.38-8.16,14.34s-8.1-4.35-8.1-14.27q0-42.45,0-84.9Z" transform="translate(-172.71 -97.98)"/><path class="cls-1" d="M449,464c-15,0-30-.14-45,.08-4.47.06-6-1.16-6-5.9.24-25.25-.07-50.51.18-75.76.3-29.16,21.43-51.52,49-52.33,29.55-.87,51.69,19.72,54.09,49.63,2.09,26,1,52,.13,77.95-.16,5.08-2,6.4-6.66,6.34-15.26-.17-30.51-.06-45.76-.06Z" transform="translate(-172.71 -97.98)"/><path class="cls-1" d="M196.63,559.61c0,82.39,0,151,0,219.62a75.63,75.63,0,0,1-.19,8.25c-.48,4.34-3.11,6.69-7.47,6.92-4.78.25-7.57-2.21-8.41-6.78a33.16,33.16,0,0,1-.21-6c0-134-.4-268,.19-401.92.28-63.61,18.85-121.63,58.36-172.26,6.58-8.43,10.9-10.31,15.77-6.5s4,8.28-2.68,16.81c-33.81,43.13-51.84,92.43-54.24,146.82C194.67,434.13,197.39,503.78,196.63,559.61Z" transform="translate(-172.71 -97.98)"/><path class="cls-1" d="M633.86,588.84q0,97.29,0,194.58c0,4.51.43,9.31-5.58,10.76-6.48,1.57-10.72-2.44-10.72-10.45,0-35.06.18-70.12.08-105.18-.22-79.89,2.22-159.76,2.43-239.64.1-38.58-3-77-11.55-114.79-3.35-14.87-10.91-27.86-18.8-40.67-.91-1.49-2-2.92-2.73-4.48-2.26-4.63-2-8.93,2.77-11.72,4.41-2.58,8.36-1,11,3,11.73,17.58,21.44,36.12,25.5,57.14,10.07,52.18,11.33,104.94,9.75,157.8C635,519.73,635.34,554.28,633.86,588.84Z" transform="translate(-172.71 -97.98)"/><path class="cls-1" d="M309.46,574.08c0-68.62-.14-137.24.09-205.86.05-18.26,5.27-35.5,12.7-52.11,2.46-5.49,6.06-9.23,12.16-6.55,6.36,2.81,5.36,8.23,2.91,13.45-8.66,18.47-11.93,37.89-11.9,58.26q.3,198.35.1,396.69c0,2.51,0,5,0,7.52,0,5.79-2.74,9-8.65,8.84s-7.53-4-7.51-9.12c0-2.26,0-4.51,0-6.77V574.08Z" transform="translate(-172.71 -97.98)"/><path class="cls-1" d="M677.12,580.83q0,100.24,0,200.51c0,2.25.32,4.61-.25,6.72-1.17,4.36-4.23,6.81-8.89,6.35-4.3-.44-6.74-3-7-7.4-.14-2-.1-4-.1-6q0-199.75,0-399.52c0-1,0-2,0-3-.19-5.86,1.1-11,8.22-10.8s8.09,5.35,8.09,11.13q0,88.62.15,177.23,0,12.39,0,24.79Z" transform="translate(-172.71 -97.98)"/><path class="cls-1" d="M282.43,377.26c0,6.75.19,13.52-.06,20.27-.18,5-2.17,8.88-8,8.88-5.66,0-8-3.61-8.28-8.68-3.06-60.46,13-114.14,58.23-156.27,40.86-38,89.72-54,145.43-48.57,28.69,2.78,54.93,12.47,79.31,27.56,3.19,2,6.55,3.84,7.47,8,.75,3.38-.86,5.94-3.3,7.86-3.71,2.92-7.41,1.91-11.06-.49-15.81-10.39-32.79-18.25-51.24-22.47-64.58-14.77-120.17,2-164.93,50.39C295.31,296.88,283.74,331,282.43,377.26Z" transform="translate(-172.71 -97.98)"/><path class="cls-1" d="M591.31,388.73c0,6.51.14,13,0,19.52-.15,5.22-2.15,9.79-8,9.89-6.33.11-8.4-4.5-8.39-10.15,0-18.75.76-37.46-2.33-56.14-8-48.52-52.82-92.06-101.38-99-41.1-5.9-76.64,4.85-107,33-4.4,4.08-9.32,6.1-13.75,1.28s-1.86-9.63,2.52-13.62c39.43-35.9,85.51-47.65,136.34-33,52.49,15.09,85.21,51,98.38,104.29C591.19,359.19,591.46,374,591.31,388.73Z" transform="translate(-172.71 -97.98)"/><path class="cls-1" d="M449.74,710.08c-7.5,0-15-.18-22.51,0-4.6.14-5.28-1.28-4.2-5.71,3.49-14.31,6.39-28.76,9.61-43.13.85-3.81.83-6.65-2.44-10-11.52-11.69-11.05-29.11.45-40.16,10.61-10.2,29.16-10.06,39.47.3,11.32,11.37,11.59,27.73.11,39.52-3.3,3.39-3.84,6.53-3,10.72,2.8,13.19,5.46,26.41,8.13,39.62,1.76,8.73,1.73,8.74-6.9,8.76H449.74Z" transform="translate(-172.71 -97.98)"/><path class="cls-1" d="M574.93,648.47V515.56a36.57,36.57,0,0,1,.17-5.24c.65-4.37,3.71-6.63,7.71-6.92s6.68,2.16,7.84,5.79a22.31,22.31,0,0,1,.56,6.66q0,132.92,0,265.81a29.25,29.25,0,0,1-.43,6.7c-1,4.2-3.93,6.26-8.3,5.95s-7.07-2.34-7.28-6.94c-.13-2.75-.16-5.5-.16-8.26q0-65.31,0-130.64Z" transform="translate(-172.71 -97.98)"/><path class="cls-1" d="M282.58,650q0,65.7,0,131.41a31.21,31.21,0,0,1-.39,6.71c-.82,3.75-3,6.13-7.26,6.27-4.4.15-7.31-1.78-8.37-5.93A30.54,30.54,0,0,1,266,781q0-130.29,0-260.57a70.87,70.87,0,0,1,.15-8.25c.57-4.84,3.21-7.79,8.36-7.81,4.92,0,7.21,3,7.83,7.43a55.14,55.14,0,0,1,.25,7.5q0,65.32,0,130.66Z" transform="translate(-172.71 -97.98)"/><path class="cls-1" d="M548.07,661c0,40.78-.06,81.56.06,122.34,0,5.88-.81,10.65-7.9,11.1-5.74.36-8.28-3.23-8.28-11.43q-.06-121.59-.08-243.16a39.81,39.81,0,0,1,.24-6.74c.73-4.18,3.32-6.84,7.68-6.76s7.59,2.34,8.21,7.08a39.75,39.75,0,0,1,.11,5.24q0,61.17,0,122.33Z" transform="translate(-172.71 -97.98)"/><path class="cls-1" d="M223.43,685.21q0-47.64,0-95.29c0-1.75,0-3.51.1-5.25.37-4.9,3.56-7.1,8-7.25,4.69-.16,7.6,2.64,8,7.22s.14,9.5.14,14.25q0,90.79,0,181.59a60.74,60.74,0,0,1-.1,6.75c-.53,4.67-3.31,7.17-8,7.18s-7.62-2.44-8-7.15c-.32-4.23-.15-8.5-.15-12.75q0-44.65,0-89.3Z" transform="translate(-172.71 -97.98)"/><path class="cls-1" d="M266.09,457.8c0-4.48-.31-9,.09-13.42.42-4.7,2.9-7.84,8.15-7.89s8,3.26,8.2,7.84c.34,8.93.05,17.89-.34,26.83-.21,4.89-3,7.86-8.23,7.55-5.09-.3-7.58-3.41-7.86-8.23-.24-4.21-.05-8.45-.05-12.68Z" transform="translate(-172.71 -97.98)"/><path class="cls-1" d="M575.06,463.35c0-3-.07-6,0-9,.13-4.42,2.55-6.95,6.84-7.46s7.56,1.34,8.49,5.58c1.68,7.6,1.36,15.39.13,23-.64,3.93-4.08,6.33-8.41,5.82s-6.73-3.15-7-7.47c-.19-3.48,0-7,0-10.47Z" transform="translate(-172.71 -97.98)"/></svg>